# Blender v2.82 (sub 7) OBJ File: 'Dom Starościński.blend'
# www.blender.org
mtllib wiatrka13.mtl
o Cube.001
v 0.011699 0.014899 -0.031182
v 0.015587 0.014899 -0.031182
v 0.011699 -0.016204 -0.023406
v 0.011699 -0.016204 -0.031182
v 0.015587 -0.016204 -0.031182
v 0.015587 -0.016204 -0.023406
v 0.015587 0.014899 -0.023406
v -0.011628 0.014899 -0.000079
v -0.015516 0.014899 -0.000079
v -0.015516 -0.016204 -0.000079
v -0.011628 -0.016204 -0.000079
v -0.015516 0.014899 -0.023406
v -0.015516 0.014899 -0.031182
v -0.015516 -0.016204 -0.031182
v -0.015516 -0.016204 -0.023406
v -0.011628 0.014899 -0.023406
v -0.011628 0.014899 -0.031182
v -0.011628 -0.016204 -0.031182
v 0.006055 -0.006672 -0.009610
v 0.006055 -0.006672 -0.021650
v 0.006055 0.005368 -0.021650
v 0.006055 0.005368 -0.009610
v -0.005985 0.005368 -0.021650
v -0.005985 0.005368 -0.009610
v -0.005985 -0.006672 -0.021650
v -0.005985 -0.006672 -0.009610
v 0.000035 0.005368 -0.009610
v 0.000035 0.005368 -0.021650
v -0.001139 0.005252 -0.021650
v -0.001139 0.005252 -0.009610
v -0.002269 0.004909 -0.021650
v -0.002269 0.004909 -0.009610
v -0.003309 0.004353 -0.021650
v -0.003309 0.004353 -0.009610
v -0.004222 0.003604 -0.021650
v -0.004222 0.003604 -0.009610
v -0.004970 0.002692 -0.021650
v -0.004970 0.002692 -0.009610
v -0.005527 0.001651 -0.021650
v -0.005527 0.001651 -0.009610
v -0.005869 0.000522 -0.021650
v -0.005869 0.000522 -0.009610
v -0.005985 -0.000652 -0.021650
v -0.005985 -0.000652 -0.009610
v -0.005869 -0.001827 -0.021650
v -0.005869 -0.001827 -0.009610
v -0.005527 -0.002956 -0.021650
v -0.005527 -0.002956 -0.009610
v -0.004970 -0.003997 -0.021650
v -0.004970 -0.003997 -0.009610
v -0.004222 -0.004909 -0.021650
v -0.004222 -0.004909 -0.009610
v -0.003309 -0.005658 -0.021650
v -0.003309 -0.005658 -0.009610
v -0.002269 -0.006214 -0.021650
v -0.002269 -0.006214 -0.009610
v -0.001139 -0.006557 -0.021650
v -0.001139 -0.006557 -0.009610
v 0.000035 -0.006672 -0.021650
v 0.000035 -0.006672 -0.009610
v 0.001210 -0.006557 -0.021650
v 0.001210 -0.006557 -0.009610
v 0.002339 -0.006214 -0.021650
v 0.002339 -0.006214 -0.009610
v 0.003380 -0.005658 -0.021650
v 0.003380 -0.005658 -0.009610
v 0.004292 -0.004909 -0.021650
v 0.004292 -0.004909 -0.009610
v 0.005041 -0.003997 -0.021650
v 0.005041 -0.003997 -0.009610
v 0.005597 -0.002956 -0.021650
v 0.005597 -0.002956 -0.009610
v 0.005940 -0.001827 -0.021650
v 0.005940 -0.001827 -0.009610
v 0.006055 -0.000652 -0.021650
v 0.006055 -0.000652 -0.009610
v 0.005940 0.000522 -0.021650
v 0.005940 0.000522 -0.009610
v 0.005597 0.001651 -0.021650
v 0.005597 0.001651 -0.009610
v 0.005041 0.002692 -0.021650
v 0.005041 0.002692 -0.009610
v 0.004292 0.003604 -0.021650
v 0.004292 0.003604 -0.009610
v 0.003380 0.004353 -0.021650
v 0.003380 0.004353 -0.009610
v 0.002339 0.004909 -0.021650
v 0.002339 0.004909 -0.009610
v 0.001210 0.005252 -0.021650
v 0.001210 0.005252 -0.009610
v -0.011628 0.014899 -0.015630
v -0.015516 0.014899 -0.015630
v -0.015516 -0.016204 -0.015630
v 0.015587 -0.016204 -0.000079
v 0.015587 -0.016204 -0.015630
v 0.015587 0.014899 -0.015630
v 0.015587 0.014899 -0.000079
v 0.011699 -0.016204 -0.000079
v 0.011699 -0.016204 -0.015630
v 0.003923 -0.016204 -0.023406
v 0.007811 -0.016204 -0.023406
v 0.007811 -0.013701 -0.023406
v 0.003923 -0.013701 -0.023406
v 0.003923 0.014899 -0.015630
v 0.003923 0.014899 -0.023406
v 0.000035 0.014899 -0.023406
v 0.000035 0.014899 -0.015630
v 0.003923 -0.016204 -0.000079
v 0.000035 -0.016204 -0.000079
v 0.000035 -0.013701 -0.000079
v 0.003923 -0.013701 -0.000079
v 0.003923 0.014899 -0.000079
v 0.000035 0.014899 -0.000079
v 0.003923 -0.016204 -0.031182
v 0.000035 -0.016204 -0.031182
v 0.003923 0.014899 -0.031182
v 0.000035 0.014899 -0.031182
v -0.003853 -0.016204 -0.023406
v -0.003853 -0.016204 -0.031182
v 0.000035 -0.016204 -0.023406
v -0.003853 0.014899 -0.031182
v -0.007741 0.014899 -0.031182
v -0.011628 -0.016204 -0.023406
v -0.007741 -0.016204 -0.031182
v -0.007741 -0.016204 -0.023406
v 0.000035 -0.013701 -0.023406
v -0.003853 -0.013701 -0.023406
v -0.003853 0.014899 -0.015630
v -0.003853 0.014899 -0.023406
v -0.007741 0.014899 -0.023406
v -0.007741 0.014899 -0.015630
v -0.003853 0.014899 -0.000079
v -0.007741 0.014899 -0.000079
v -0.007741 -0.016204 -0.000079
v -0.003853 -0.016204 -0.000079
v -0.011628 -0.016204 -0.015630
v 0.011699 0.014899 -0.000079
v 0.007811 0.014899 -0.000079
v 0.007811 -0.016204 -0.000079
v 0.011699 0.014899 -0.023406
v 0.007811 0.014899 -0.031182
v 0.007811 0.014899 -0.023406
v 0.007811 -0.016204 -0.031182
v 0.011699 0.014899 -0.015630
v 0.007811 0.014899 -0.015630
v -0.011628 -0.013701 -0.015630
v -0.011628 -0.013701 -0.000079
v 0.007811 -0.013701 -0.000079
v -0.007741 -0.013701 -0.023406
v -0.011628 -0.013701 -0.023406
v 0.011699 -0.013701 -0.023406
v -0.007741 -0.013701 -0.000079
v -0.003853 -0.013701 -0.000079
v -0.003853 -0.013701 -0.015630
v 0.000035 -0.013701 -0.015630
v -0.007741 -0.013701 -0.015630
v 0.003923 -0.013701 -0.015630
v 0.007811 -0.013701 -0.015630
v 0.011699 -0.013701 -0.015630
v 0.011699 -0.013701 -0.000079
v 0.031809 -0.025097 -0.048110
v 0.016220 -0.031466 -0.031523
v 0.016041 -0.031466 -0.030935
v 0.014887 -0.021275 -0.029528
v 0.015362 -0.021275 -0.029918
v 0.016220 -0.021275 -0.031523
v 0.016220 -0.022549 -0.031523
v 0.014887 -0.031466 -0.029528
v 0.014345 -0.031466 -0.029239
v 0.015752 -0.021275 -0.030393
v 0.014345 -0.030192 -0.029239
v 0.015752 -0.031466 -0.030393
v 0.014345 -0.021275 -0.029239
v 0.015362 -0.031466 -0.029918
v 0.016041 -0.021275 -0.030935
v -0.016089 -0.031466 -0.030374
v -0.016267 -0.031466 -0.030962
v -0.016267 -0.021275 -0.030962
v -0.016089 -0.021275 -0.030374
v -0.014934 -0.031466 -0.028967
v -0.015409 -0.031466 -0.029357
v -0.015799 -0.021275 -0.029832
v -0.015409 -0.021275 -0.029357
v -0.014934 -0.021275 -0.028967
v -0.015799 -0.031466 -0.029832
v -0.014393 -0.021275 -0.028677
v -0.014393 -0.022549 -0.028677
v -0.014393 -0.031466 -0.028677
v -0.016267 -0.030192 -0.030962
v 0.013198 -0.031466 -0.014762
v -0.016267 -0.025097 -0.030962
v -0.016267 -0.026371 -0.030962
v -0.014393 -0.027645 -0.028677
v -0.014393 -0.026371 -0.028677
v 0.014345 -0.025097 -0.029239
v 0.014345 -0.026371 -0.029239
v 0.016220 -0.027645 -0.031523
v 0.016220 -0.026371 -0.031523
v -0.036734 -0.026371 -0.028347
v -0.036734 -0.027645 -0.028347
v 0.016220 -0.028918 -0.031523
v 0.016220 -0.030192 -0.031523
v -0.014393 -0.028918 -0.028677
v -0.014393 -0.030192 -0.028677
v -0.016267 -0.027645 -0.030962
v -0.016267 -0.028918 -0.030962
v 0.014345 -0.027645 -0.029239
v 0.014345 -0.028918 -0.029239
v -0.036734 -0.021275 -0.028347
v 0.014345 -0.023823 -0.029239
v 0.014345 -0.022549 -0.029239
v -0.016267 -0.023823 -0.030962
v -0.016267 -0.022549 -0.030962
v 0.013198 -0.023823 -0.014762
v 0.013198 -0.022549 -0.014762
v -0.014393 -0.025097 -0.028677
v -0.014393 -0.023823 -0.028677
v 0.016220 -0.025097 -0.031523
v 0.016220 -0.023823 -0.031523
v 0.013198 -0.021275 -0.014762
v 0.031809 -0.023823 -0.048110
v -0.036734 -0.028918 -0.028347
v 0.013198 -0.030192 -0.014762
v 0.013198 -0.028918 -0.014762
v 0.013198 -0.026371 -0.014762
v 0.013198 -0.025097 -0.014762
v -0.036734 -0.025097 -0.028347
v 0.031809 -0.022549 -0.048110
v 0.031809 -0.021275 -0.048110
v 0.013198 -0.027645 -0.014762
v 0.031809 -0.031466 -0.048110
v 0.031809 -0.030192 -0.048110
v -0.036734 -0.031466 -0.028347
v -0.036734 -0.030192 -0.028347
v -0.036734 -0.023823 -0.028347
v -0.036734 -0.022549 -0.028347
v 0.031809 -0.026371 -0.048110
v 0.031809 -0.027645 -0.048110
v 0.031809 -0.028918 -0.048110
vt 0.562500 0.968750
vt 0.625000 0.968750
vt 0.625000 1.000000
vt 0.562500 1.000000
vt 0.562500 0.000000
vt 0.625000 0.000000
vt 0.625000 0.250000
vt 0.562500 0.250000
vt 0.343750 0.500000
vt 0.375000 0.500000
vt 0.375000 0.750000
vt 0.343750 0.750000
vt 0.562500 0.500000
vt 0.625000 0.500000
vt 0.625000 0.750000
vt 0.562500 0.750000
vt 0.562500 0.468750
vt 0.625000 0.468750
vt 0.375000 0.000000
vt 0.625000 0.000000
vt 0.625000 0.250000
vt 0.375000 0.250000
vt 0.625000 0.500000
vt 0.375000 0.500000
vt 0.625000 0.750000
vt 0.375000 0.750000
vt 0.625000 1.000000
vt 0.375000 1.000000
vt 0.125000 0.500000
vt 0.125000 0.750000
vt 0.875000 0.500000
vt 0.875000 0.750000
vt 1.000000 0.500000
vt 1.000000 1.000000
vt 0.968750 1.000000
vt 0.968750 0.500000
vt 0.937500 1.000000
vt 0.937500 0.500000
vt 0.906250 1.000000
vt 0.906250 0.500000
vt 0.875000 1.000000
vt 0.875000 0.500000
vt 0.843750 1.000000
vt 0.843750 0.500000
vt 0.812500 1.000000
vt 0.812500 0.500000
vt 0.781250 1.000000
vt 0.781250 0.500000
vt 0.750000 1.000000
vt 0.750000 0.500000
vt 0.718750 1.000000
vt 0.718750 0.500000
vt 0.687500 1.000000
vt 0.687500 0.500000
vt 0.656250 1.000000
vt 0.656250 0.500000
vt 0.625000 1.000000
vt 0.625000 0.500000
vt 0.593750 1.000000
vt 0.593750 0.500000
vt 0.562500 1.000000
vt 0.562500 0.500000
vt 0.531250 1.000000
vt 0.531250 0.500000
vt 0.500000 1.000000
vt 0.500000 0.500000
vt 0.468750 1.000000
vt 0.468750 0.500000
vt 0.437500 1.000000
vt 0.437500 0.500000
vt 0.406250 1.000000
vt 0.406250 0.500000
vt 0.375000 1.000000
vt 0.375000 0.500000
vt 0.343750 1.000000
vt 0.343750 0.500000
vt 0.312500 1.000000
vt 0.312500 0.500000
vt 0.281250 1.000000
vt 0.281250 0.500000
vt 0.250000 1.000000
vt 0.250000 0.500000
vt 0.218750 1.000000
vt 0.218750 0.500000
vt 0.187500 1.000000
vt 0.187500 0.500000
vt 0.156250 1.000000
vt 0.156250 0.500000
vt 0.125000 1.000000
vt 0.125000 0.500000
vt 0.093750 1.000000
vt 0.093750 0.500000
vt 0.062500 1.000000
vt 0.062500 0.500000
vt 0.296822 0.485388
vt 0.250000 0.490000
vt 0.203179 0.485389
vt 0.158156 0.471731
vt 0.116663 0.449553
vt 0.080295 0.419706
vt 0.050447 0.383337
vt 0.028269 0.341844
vt 0.014612 0.296822
vt 0.010000 0.250000
vt 0.014611 0.203179
vt 0.028269 0.158156
vt 0.050447 0.116663
vt 0.080294 0.080294
vt 0.116663 0.050447
vt 0.158156 0.028269
vt 0.203178 0.014612
vt 0.250000 0.010000
vt 0.296822 0.014612
vt 0.341844 0.028269
vt 0.383337 0.050447
vt 0.419706 0.080294
vt 0.449553 0.116663
vt 0.471731 0.158156
vt 0.485388 0.203178
vt 0.490000 0.250000
vt 0.485388 0.296822
vt 0.471731 0.341844
vt 0.449553 0.383337
vt 0.419706 0.419706
vt 0.383337 0.449553
vt 0.341844 0.471731
vt 0.031250 1.000000
vt 0.031250 0.500000
vt 0.000000 1.000000
vt 0.000000 0.500000
vt 0.750000 0.490000
vt 0.796822 0.485388
vt 0.841844 0.471731
vt 0.883337 0.449553
vt 0.919706 0.419706
vt 0.949553 0.383337
vt 0.971731 0.341844
vt 0.985388 0.296822
vt 0.990000 0.250000
vt 0.985388 0.203178
vt 0.971731 0.158156
vt 0.949553 0.116663
vt 0.919706 0.080294
vt 0.883337 0.050447
vt 0.841844 0.028269
vt 0.796822 0.014612
vt 0.750000 0.010000
vt 0.703178 0.014612
vt 0.658156 0.028269
vt 0.616663 0.050447
vt 0.580294 0.080294
vt 0.550447 0.116663
vt 0.528269 0.158156
vt 0.514611 0.203179
vt 0.510000 0.250000
vt 0.514612 0.296822
vt 0.528269 0.341844
vt 0.550447 0.383337
vt 0.580295 0.419706
vt 0.616663 0.449553
vt 0.658156 0.471731
vt 0.703179 0.485389
vt 0.375000 0.468750
vt 0.500000 0.468750
vt 0.500000 0.500000
vt 0.500000 0.750000
vt 0.375000 0.000000
vt 0.500000 0.000000
vt 0.500000 0.250000
vt 0.375000 0.250000
vt 0.375000 0.968750
vt 0.500000 0.968750
vt 0.500000 1.000000
vt 0.375000 1.000000
vt 0.562500 0.906250
vt 0.562500 0.937500
vt 0.562500 0.937500
vt 0.562500 0.906250
vt 0.500000 0.343750
vt 0.562500 0.343750
vt 0.562500 0.375000
vt 0.500000 0.375000
vt 0.218750 0.750000
vt 0.250000 0.750000
vt 0.250000 0.750000
vt 0.218750 0.750000
vt 0.375000 0.343750
vt 0.375000 0.375000
vt 0.625000 0.343750
vt 0.625000 0.375000
vt 0.218750 0.500000
vt 0.250000 0.500000
vt 0.562500 0.843750
vt 0.625000 0.843750
vt 0.625000 0.875000
vt 0.562500 0.875000
vt 0.562500 0.781250
vt 0.625000 0.781250
vt 0.625000 0.812500
vt 0.562500 0.812500
vt 0.562500 0.875000
vt 0.562500 0.843750
vt 0.500000 0.406250
vt 0.562500 0.406250
vt 0.562500 0.437500
vt 0.500000 0.437500
vt 0.375000 0.406250
vt 0.375000 0.437500
vt 0.625000 0.406250
vt 0.625000 0.437500
vt 0.281250 0.500000
vt 0.312500 0.500000
vt 0.312500 0.750000
vt 0.281250 0.750000
vt 0.500000 0.781250
vt 0.375000 0.781250
vt 0.156250 0.500000
vt 0.187500 0.500000
vt 0.187500 0.750000
vt 0.156250 0.750000
vt 0.562500 0.281250
vt 0.625000 0.281250
vt 0.625000 0.312500
vt 0.562500 0.312500
vt 0.375000 0.281250
vt 0.500000 0.281250
vt 0.500000 0.312500
vt 0.375000 0.312500
vt 0.500000 0.781250
vt 0.375000 0.781250
vt 0.187500 0.750000
vt 0.625000 0.906250
vt 0.625000 0.937500
vt 0.562500 0.812500
vt 0.562500 0.781250
vt 0.125000 0.500000
vt 0.125000 0.750000
vt 0.562500 0.968750
vt 0.312500 0.750000
vt 0.281250 0.750000
vt 0.500000 0.843750
vt 0.500000 0.875000
vt 0.375000 0.843750
vt 0.375000 0.875000
vt 0.500000 0.812500
vt 0.375000 0.812500
vt 0.500000 0.906250
vt 0.500000 0.937500
vt 0.375000 0.906250
vt 0.375000 0.937500
vt 0.500000 0.968750
vt 0.375000 0.968750
vt 0.156250 0.750000
vt 0.343750 0.750000
vn 0.0000 -1.0000 -0.0000
vn 1.0000 0.0000 0.0000
vn 0.0000 -0.0000 1.0000
vn -1.0000 0.0000 0.0000
vn 0.0000 1.0000 0.0000
vn 0.0000 0.0000 -1.0000
vn -0.0980 0.9952 0.0000
vn -0.2905 0.9569 0.0000
vn -0.4715 0.8819 0.0000
vn -0.6346 0.7728 0.0000
vn -0.7730 0.6344 0.0000
vn -0.8817 0.4718 0.0000
vn -0.9571 0.2899 0.0000
vn -0.9952 0.0979 0.0000
vn -0.9952 -0.0982 -0.0000
vn -0.9571 -0.2899 -0.0000
vn -0.8817 -0.4718 -0.0000
vn -0.7730 -0.6344 -0.0000
vn -0.6346 -0.7728 -0.0000
vn -0.4715 -0.8819 -0.0000
vn -0.2905 -0.9569 -0.0000
vn -0.0980 -0.9952 -0.0000
vn 0.0979 -0.9952 -0.0000
vn 0.2907 -0.9568 -0.0000
vn 0.4711 -0.8821 -0.0000
vn 0.6343 -0.7731 -0.0000
vn 0.7728 -0.6347 -0.0000
vn 0.8819 -0.4714 -0.0000
vn 0.9568 -0.2907 -0.0000
vn 0.9952 -0.0979 -0.0000
vn 0.9952 0.0978 0.0000
vn 0.9568 0.2907 0.0000
vn 0.8819 0.4714 0.0000
vn 0.7728 0.6347 0.0000
vn 0.6343 0.7731 0.0000
vn 0.4711 0.8821 0.0000
vn 0.2907 0.9568 0.0000
vn 0.0982 0.9952 0.0000
usemtl Material.001
s 1
f 3/1/1 4/2/1 5/3/1 6/4/1
f 6/5/2 5/6/2 2/7/2 7/8/2
f 8/9/3 9/10/3 10/11/3 11/12/3
f 12/13/4 13/14/4 14/15/4 15/16/4
f 16/17/5 17/18/5 13/14/5 12/13/5
f 19/19/2 20/20/2 21/21/2 22/22/2
f 22/22/5 21/21/5 23/23/5 24/24/5
f 24/24/4 23/23/4 25/25/4 26/26/4
f 26/26/1 25/25/1 20/27/1 19/28/1
f 22/29/3 24/24/3 26/26/3 19/30/3
f 23/23/6 21/31/6 20/32/6 25/25/6
f 27/33/7 28/34/7 29/35/7 30/36/7
f 30/36/8 29/35/8 31/37/8 32/38/8
f 32/38/9 31/37/9 33/39/9 34/40/9
f 34/40/10 33/39/10 35/41/10 36/42/10
f 36/42/11 35/41/11 37/43/11 38/44/11
f 38/44/12 37/43/12 39/45/12 40/46/12
f 40/46/13 39/45/13 41/47/13 42/48/13
f 42/48/14 41/47/14 43/49/14 44/50/14
f 44/50/15 43/49/15 45/51/15 46/52/15
f 46/52/16 45/51/16 47/53/16 48/54/16
f 48/54/17 47/53/17 49/55/17 50/56/17
f 50/56/18 49/55/18 51/57/18 52/58/18
f 52/58/19 51/57/19 53/59/19 54/60/19
f 54/60/20 53/59/20 55/61/20 56/62/20
f 56/62/21 55/61/21 57/63/21 58/64/21
f 58/64/22 57/63/22 59/65/22 60/66/22
f 60/66/23 59/65/23 61/67/23 62/68/23
f 62/68/24 61/67/24 63/69/24 64/70/24
f 64/70/25 63/69/25 65/71/25 66/72/25
f 66/72/26 65/71/26 67/73/26 68/74/26
f 68/74/27 67/73/27 69/75/27 70/76/27
f 70/76/28 69/75/28 71/77/28 72/78/28
f 72/78/29 71/77/29 73/79/29 74/80/29
f 74/80/30 73/79/30 75/81/30 76/82/30
f 76/82/31 75/81/31 77/83/31 78/84/31
f 78/84/32 77/83/32 79/85/32 80/86/32
f 80/86/33 79/85/33 81/87/33 82/88/33
f 82/88/34 81/87/34 83/89/34 84/90/34
f 84/90/35 83/89/35 85/91/35 86/92/35
f 86/92/36 85/91/36 87/93/36 88/94/36
f 29/95/6 28/96/6 89/97/6 87/98/6 85/99/6 83/100/6 81/101/6 79/102/6 77/103/6 75/104/6 73/105/6 71/106/6 69/107/6 67/108/6 65/109/6 63/110/6 61/111/6 59/112/6 57/113/6 55/114/6 53/115/6 51/116/6 49/117/6 47/118/6 45/119/6 43/120/6 41/121/6 39/122/6 37/123/6 35/124/6 33/125/6 31/126/6
f 88/94/37 87/93/37 89/127/37 90/128/37
f 90/128/38 89/127/38 28/129/38 27/130/38
f 27/131/3 30/132/3 32/133/3 34/134/3 36/135/3 38/136/3 40/137/3 42/138/3 44/139/3 46/140/3 48/141/3 50/142/3 52/143/3 54/144/3 56/145/3 58/146/3 60/147/3 62/148/3 64/149/3 66/150/3 68/151/3 70/152/3 72/153/3 74/154/3 76/155/3 78/156/3 80/157/3 82/158/3 84/159/3 86/160/3 88/161/3 90/162/3
f 8/163/5 91/164/5 92/165/5 9/10/5
f 9/10/4 92/165/4 93/166/4 10/11/4
f 94/167/2 95/168/2 96/169/2 97/170/2
f 98/171/1 99/172/1 95/173/1 94/174/1
f 91/164/5 16/17/5 12/13/5 92/165/5
f 92/165/4 12/13/4 15/16/4 93/166/4
f 95/168/2 6/5/2 7/8/2 96/169/2
f 99/172/1 3/1/1 6/4/1 95/173/1
f 100/175/3 101/176/3 102/177/3 103/178/3
f 104/179/5 105/180/5 106/181/5 107/182/5
f 108/183/6 109/184/6 110/185/6 111/186/6
f 112/187/5 104/179/5 107/182/5 113/188/5
f 105/180/5 116/189/5 117/190/5 106/181/5
f 112/191/3 113/192/3 109/184/3 108/183/3
f 118/193/1 119/194/1 115/195/1 120/196/1
f 123/197/1 18/198/1 124/199/1 125/200/1
f 120/196/3 100/175/3 103/178/3 126/201/3
f 118/193/3 120/196/3 126/201/3 127/202/3
f 128/203/5 129/204/5 130/205/5 131/206/5
f 132/207/5 128/203/5 131/206/5 133/208/5
f 129/204/5 121/209/5 122/210/5 130/205/5
f 132/211/3 133/212/3 134/213/3 135/214/3
f 93/166/1 15/16/1 123/197/1 136/215/1
f 10/11/1 93/166/1 136/215/1 11/216/1
f 15/16/1 14/15/1 18/198/1 123/197/1
f 131/206/5 130/205/5 16/17/5 91/164/5
f 133/208/5 131/206/5 91/164/5 8/163/5
f 130/205/5 122/210/5 17/18/5 16/17/5
f 133/212/3 8/9/3 11/12/3 134/213/3
f 137/217/3 138/218/3 139/219/3 98/220/3
f 140/221/5 1/222/5 141/223/5 142/224/5
f 137/225/5 144/226/5 145/227/5 138/228/5
f 144/226/5 140/221/5 142/224/5 145/227/5
f 11/216/2 136/215/2 146/229/2 147/230/2
f 139/219/6 108/183/6 111/186/6 148/231/6
f 100/175/1 114/232/1 143/233/1 101/176/1
f 120/196/1 115/195/1 114/232/1 100/175/1
f 123/197/3 125/200/3 149/234/3 150/235/3
f 136/215/2 123/197/2 150/235/2 146/229/2
f 138/218/3 112/191/3 108/183/3 139/219/3
f 142/224/5 141/223/5 116/189/5 105/180/5
f 138/228/5 145/227/5 104/179/5 112/187/5
f 145/227/5 142/224/5 105/180/5 104/179/5
f 96/169/5 7/8/5 140/221/5 144/226/5
f 97/170/5 96/169/5 144/226/5 137/225/5
f 7/8/5 2/7/5 1/222/5 140/221/5
f 97/236/3 137/217/3 98/220/3 94/237/3
f 101/176/3 3/1/3 151/238/3 102/177/3
f 135/214/6 134/213/6 152/239/6 153/240/6
f 101/176/1 143/233/1 4/2/1 3/1/1
f 113/192/3 132/211/3 135/214/3 109/184/3
f 106/181/5 117/190/5 121/209/5 129/204/5
f 113/188/5 107/182/5 128/203/5 132/207/5
f 107/182/5 106/181/5 129/204/5 128/203/5
f 125/200/1 124/199/1 119/194/1 118/193/1
f 109/184/6 135/214/6 153/240/6 110/185/6
f 125/200/3 118/193/3 127/202/3 149/234/3
f 154/241/1 127/202/1 126/201/1 155/242/1
f 153/243/1 154/241/1 155/242/1 110/244/1
f 147/230/1 146/229/1 156/245/1 152/246/1
f 146/229/1 150/235/1 149/234/1 156/245/1
f 157/247/1 103/178/1 102/177/1 158/248/1
f 111/249/1 157/247/1 158/248/1 148/250/1
f 110/244/1 155/242/1 157/247/1 111/249/1
f 155/242/1 126/201/1 103/178/1 157/247/1
f 158/248/1 102/177/1 151/238/1 159/251/1
f 148/250/1 158/248/1 159/251/1 160/252/1
f 152/246/1 156/245/1 154/241/1 153/243/1
f 156/245/1 149/234/1 127/202/1 154/241/1
f 3/1/4 99/172/4 159/251/4 151/238/4
f 98/220/6 139/219/6 148/231/6 160/253/6
f 99/172/4 98/171/4 160/252/4 159/251/4
f 134/213/6 11/12/6 147/254/6 152/239/6
l 162 163
l 164 165
l 166 167
l 168 169
l 165 170
l 169 171
l 163 172
l 164 173
l 168 174
l 172 174
l 166 175
l 170 175
l 176 177
l 178 179
l 180 181
l 179 182
l 182 183
l 183 184
l 181 185
l 186 187
l 180 188
l 176 185
l 177 189
l 184 186
l 191 192
l 193 194
l 195 196
l 197 198
l 199 200
l 201 202
l 203 204
l 205 206
l 207 208
l 210 211
l 212 213
l 214 215
l 216 217
l 218 219
l 178 213
l 173 211
l 187 217
l 167 219
l 223 224
l 198 218
l 194 216
l 195 210
l 191 212
l 225 226
l 199 227
l 228 229
l 196 207
l 192 205
l 197 201
l 193 203
l 225 230
l 188 204
l 162 202
l 189 206
l 171 208
l 231 232
l 215 220
l 190 223
l 233 234
l 235 236
l 209 236
l 222 234
l 161 237
l 221 228
l 237 238
l 232 239
